<svg width="14" height="14" viewBox="0 0 14 14" fill="none" xmlns="http://www.w3.org/2000/svg">
<path d="M2.47922 10.0974C2.4086 10.0987 2.33873 10.0828 2.27559 10.0511C2.21244 10.0194 2.15791 9.97297 2.11663 9.91564C2.07536 9.85832 2.04858 9.79185 2.03858 9.72193C2.02859 9.65201 2.03567 9.5807 2.05922 9.51411L2.78839 7.11078C2.63927 6.70111 2.56039 6.26921 2.55506 5.83328C2.55391 5.3301 2.65513 4.83194 2.85256 4.36911C3.09189 3.7991 3.46738 3.29649 3.94612 2.90533C4.42486 2.51417 4.99223 2.2464 5.59851 2.12549C6.20479 2.00458 6.83148 2.03422 7.42364 2.21181C8.0158 2.3894 8.55537 2.70952 8.99506 3.14411C9.33625 3.49074 9.60931 3.89836 9.80006 4.34578C9.99386 4.80755 10.0937 5.30332 10.0937 5.80411C10.0937 6.3049 9.99386 6.80067 9.80006 7.26244C9.60931 7.70986 9.33625 8.11748 8.99506 8.46411C8.48355 8.97472 7.83637 9.32798 7.13023 9.48203C6.42409 9.63608 5.68859 9.58445 5.01089 9.33328L2.60756 10.0799C2.56576 10.0915 2.52259 10.0974 2.47922 10.0974ZM6.32339 2.91661C5.93659 2.91549 5.55358 2.99288 5.19756 3.14411C4.50786 3.43518 3.95648 3.98029 3.65756 4.66661C3.50755 5.02402 3.43029 5.40775 3.43029 5.79536C3.43029 6.18297 3.50755 6.5667 3.65756 6.92411C3.69231 7.02023 3.69231 7.12549 3.65756 7.22161L3.12089 8.97161L4.87089 8.43494C4.96701 8.40019 5.07227 8.40019 5.16839 8.43494C5.87671 8.72911 6.6724 8.73244 7.38316 8.44421C8.09391 8.15597 8.66253 7.59938 8.96589 6.89494C9.13658 6.45861 9.19965 5.98758 9.14975 5.52172C9.09985 5.05585 8.93846 4.60886 8.67922 4.21858C8.41999 3.8283 8.07055 3.50622 7.66048 3.27959C7.25041 3.05296 6.79177 2.92845 6.32339 2.91661Z" fill="white"/>
<path d="M11.5208 11.9584C11.4782 11.9641 11.4351 11.9641 11.3925 11.9584L8.98914 11.2292C8.08623 11.5701 7.08656 11.5493 6.19863 11.1711C5.31069 10.7929 4.60306 10.0865 4.2233 9.1992C4.19735 9.1467 4.1825 9.08941 4.17969 9.03091C4.17688 8.97241 4.18617 8.91396 4.20697 8.85921C4.22777 8.80446 4.25965 8.75459 4.3006 8.71272C4.34155 8.67085 4.3907 8.63788 4.44497 8.61587C4.49775 8.59161 4.55483 8.5781 4.61289 8.57613C4.67094 8.57416 4.72881 8.58378 4.78311 8.60441C4.83741 8.62505 4.88705 8.65629 4.92915 8.69631C4.97125 8.73634 5.00496 8.78434 5.0283 8.83753C5.16696 9.16798 5.36463 9.47041 5.61164 9.73003C6.02065 10.1346 6.54015 10.4091 7.10479 10.5191C7.66944 10.6291 8.25401 10.5697 8.78497 10.3484C8.88109 10.3136 8.98635 10.3136 9.08247 10.3484L10.8325 10.885L10.2958 9.13503C10.2611 9.03891 10.2611 8.93366 10.2958 8.83753C10.447 8.48151 10.5244 8.09851 10.5233 7.7117C10.5247 7.33144 10.4506 6.95469 10.3055 6.60324C10.1603 6.25179 9.94682 5.93262 9.67747 5.6642C9.55945 5.51507 9.42868 5.37649 9.28664 5.25003C9.23563 5.21943 9.19141 5.17875 9.15666 5.13048C9.12191 5.08221 9.09737 5.02736 9.08453 4.96928C9.0717 4.9112 9.07084 4.85112 9.08201 4.7927C9.09318 4.73428 9.11615 4.67875 9.14951 4.62951C9.18287 4.58026 9.22592 4.53834 9.27603 4.5063C9.32614 4.47425 9.38225 4.45276 9.44095 4.44314C9.49964 4.43352 9.55969 4.43597 9.6174 4.45033C9.67512 4.4647 9.7293 4.49069 9.77664 4.5267C9.9853 4.6614 10.1806 4.81571 10.36 4.98753C10.703 5.33263 10.9764 5.74063 11.165 6.1892C11.3629 6.65393 11.4641 7.15409 11.4625 7.6592C11.4612 8.10691 11.3823 8.551 11.2291 8.9717L11.9583 11.375C11.9819 11.4416 11.9889 11.5129 11.9789 11.5829C11.9689 11.6528 11.9422 11.7192 11.9009 11.7766C11.8596 11.8339 11.8051 11.8804 11.7419 11.912C11.6788 11.9437 11.6089 11.9596 11.5383 11.9584H11.5208Z" fill="white"/>
</svg>
