<svg width="24" height="24" viewBox="0 0 24 24" fill="none" xmlns="http://www.w3.org/2000/svg">
<mask id="path-1-inside-1_27_2408" fill="white">
<path d="M0 6.21429C0 2.78223 2.78223 0 6.21429 0H17.7857C21.2178 0 24 2.78223 24 6.21429V17.7857C24 21.2178 21.2178 24 17.7857 24H6.21429C2.78223 24 0 21.2178 0 17.7857V6.21429Z"/>
</mask>
<path d="M0 6.21429C0 2.78223 2.78223 0 6.21429 0H17.7857C21.2178 0 24 2.78223 24 6.21429V17.7857C24 21.2178 21.2178 24 17.7857 24H6.21429C2.78223 24 0 21.2178 0 17.7857V6.21429Z" fill="url(#paint0_linear_27_2408)"/>
<g opacity="0.7" clip-path="url(#clip0_27_2408)">
<path d="M15.3545 7.58815C15.1075 7.27619 14.7712 7.04302 14.3883 6.91826L13.3998 6.60466C13.3239 6.57825 13.2582 6.52952 13.2117 6.46517C13.1653 6.40081 13.1403 6.32398 13.1403 6.24522C13.1403 6.16645 13.1653 6.08962 13.2117 6.02527C13.2582 5.96091 13.3239 5.91218 13.3998 5.88578L14.388 5.57217C14.6806 5.47347 14.9464 5.31086 15.165 5.09671C15.3837 4.88256 15.5495 4.6225 15.6499 4.3363L15.6583 4.31255L15.9792 3.34761C16.0058 3.27285 16.0555 3.20804 16.1215 3.16218C16.1876 3.11632 16.2665 3.09167 16.3475 3.09167C16.4285 3.09167 16.5075 3.11632 16.5735 3.16218C16.6395 3.20804 16.6893 3.27285 16.7159 3.34761L17.0368 4.31255C17.1367 4.60614 17.3053 4.87289 17.5293 5.09157C17.7532 5.31024 18.0263 5.47481 18.3269 5.57217L19.315 5.88578L19.3347 5.8906C19.4107 5.91701 19.4764 5.96573 19.5228 6.03009C19.5693 6.09445 19.5942 6.17128 19.5942 6.25004C19.5942 6.3288 19.5693 6.40564 19.5228 6.46999C19.4764 6.53435 19.4107 6.58308 19.3347 6.60948L18.3466 6.92309C18.0462 7.02058 17.7731 7.18519 17.5492 7.40385C17.3253 7.62251 17.1566 7.88919 17.0566 8.18271L16.7353 9.14765C16.7152 9.20332 16.6823 9.25368 16.6389 9.29477C16.5956 9.33586 16.5431 9.36656 16.4855 9.38444C16.428 9.40232 16.367 9.4069 16.3073 9.39782C16.2476 9.38874 16.191 9.36624 16.1417 9.3321C16.0758 9.2865 16.0261 9.22205 15.9993 9.14765L15.678 8.18271C15.6056 7.96798 15.4961 7.7669 15.3545 7.58815ZM20.9658 10.1386L20.4425 9.9723C20.2836 9.92063 20.1392 9.83349 20.0207 9.71779C19.9023 9.60209 19.813 9.46102 19.7601 9.30575L19.5899 8.7947C19.5758 8.75518 19.5494 8.72093 19.5145 8.6967C19.4796 8.67247 19.4378 8.65946 19.3949 8.65946C19.3521 8.65946 19.3103 8.67247 19.2754 8.6967C19.2404 8.72093 19.2141 8.75518 19.1999 8.7947L19.0298 9.30575C18.978 9.46 18.8903 9.60044 18.7737 9.71608C18.6571 9.83172 18.5147 9.91941 18.3576 9.9723L17.8343 10.1386C17.7943 10.1527 17.7597 10.1786 17.7353 10.2126C17.7108 10.2466 17.6977 10.2872 17.6977 10.3288C17.6977 10.3703 17.7108 10.4109 17.7353 10.4449C17.7597 10.479 17.7943 10.5048 17.8343 10.519L18.3576 10.6852C18.415 10.7038 18.4708 10.7272 18.524 10.755L18.5251 10.7606C18.7689 10.8878 18.9534 11.1017 19.0404 11.3581L19.2106 11.8691C19.2245 11.9071 19.2498 11.9401 19.283 11.9639C19.3163 11.9877 19.3561 12.0013 19.3973 12.0028C19.4386 12.0044 19.4793 11.9939 19.5144 11.9726C19.5494 11.9514 19.5772 11.9204 19.5941 11.8836V11.8799C19.5964 11.8752 19.5984 11.8703 19.6002 11.8654L19.7703 11.3544C19.8233 11.1991 19.9126 11.0579 20.0311 10.9422C20.1496 10.8265 20.2941 10.7394 20.4531 10.6878L20.9765 10.5216C21.0165 10.5074 21.051 10.4816 21.0755 10.4475C21.0999 10.4135 21.113 10.3729 21.113 10.3314C21.113 10.2898 21.0999 10.2492 21.0755 10.2152C21.051 10.1812 21.0165 10.1553 20.9765 10.1412L20.9658 10.1386ZM12.5924 5.60557C12.6752 5.49312 12.7781 5.39629 12.8963 5.3198H10.9557C10.8298 5.3198 10.709 5.36868 10.62 5.45568C10.531 5.54268 10.481 5.66068 10.481 5.78372C10.481 5.90675 10.531 6.02475 10.62 6.11175C10.709 6.19875 10.8298 6.24763 10.9557 6.24763H12.3783C12.3798 6.01708 12.4546 5.7927 12.5924 5.60557ZM10.481 18.2166C10.481 18.4727 10.6936 18.6805 10.9557 18.6805H13.0444C13.1703 18.6805 13.291 18.6316 13.38 18.5446C13.4691 18.4576 13.5191 18.3396 13.5191 18.2166C13.5191 18.0936 13.4691 17.9756 13.38 17.8886C13.291 17.8016 13.1703 17.7527 13.0444 17.7527H10.9557C10.6936 17.7527 10.481 17.9605 10.481 18.2166ZM5.16431 13.0208C5.16431 13.1438 5.21432 13.2618 5.30334 13.3488C5.39237 13.4358 5.51311 13.4847 5.63901 13.4847C5.76491 13.4847 5.88565 13.4358 5.97467 13.3488C6.0637 13.2618 6.11371 13.1438 6.11371 13.0208V10.9795C6.11371 10.8565 6.0637 10.7385 5.97467 10.6515C5.88565 10.5645 5.76491 10.5156 5.63901 10.5156C5.51311 10.5156 5.39237 10.5645 5.30334 10.6515C5.21432 10.7385 5.16431 10.8565 5.16431 10.9795V13.0208ZM7.7277 5.3198C7.8536 5.3198 7.97434 5.36868 8.06336 5.45568C8.15239 5.54268 8.2024 5.66068 8.2024 5.78372C8.2024 5.90675 8.15239 6.02475 8.06336 6.11175C7.97434 6.19875 7.8536 6.24763 7.7277 6.24763H7.53782C7.16012 6.24763 6.79789 6.39426 6.53082 6.65526C6.26375 6.91626 6.11371 7.27026 6.11371 7.63937V7.82494C6.11371 7.94797 6.0637 8.06597 5.97467 8.15297C5.88565 8.23997 5.76491 8.28885 5.63901 8.28885C5.51311 8.28885 5.39237 8.23997 5.30334 8.15297C5.21432 8.06597 5.16431 7.94797 5.16431 7.82494V7.63937C5.16431 7.02418 5.41437 6.43419 5.85949 5.99919C6.30461 5.56418 6.90832 5.3198 7.53782 5.3198H7.7277ZM8.2024 18.2166C8.2024 18.4727 7.98974 18.6805 7.7277 18.6805H7.53782C6.90832 18.6805 6.30461 18.4361 5.85949 18.0011C5.41437 17.5661 5.16431 16.9761 5.16431 16.3609V16.1754C5.16431 16.0523 5.21432 15.9343 5.30334 15.8473C5.39237 15.7603 5.51311 15.7115 5.63901 15.7115C5.76491 15.7115 5.88565 15.7603 5.97467 15.8473C6.0637 15.9343 6.11371 16.0523 6.11371 16.1754V16.3609C6.11371 16.7301 6.26375 17.0841 6.53082 17.3451C6.79789 17.6061 7.16012 17.7527 7.53782 17.7527H7.7277C7.98974 17.7527 8.2024 17.9605 8.2024 18.2166ZM15.7976 18.2166C15.7976 18.4727 16.0103 18.6805 16.2723 18.6805H16.4622C17.0917 18.6805 17.6954 18.4361 18.1405 18.0011C18.5857 17.5661 18.8357 16.9761 18.8357 16.3609V16.1754C18.8357 16.0523 18.7857 15.9343 18.6967 15.8473C18.6077 15.7603 18.4869 15.7115 18.361 15.7115C18.2351 15.7115 18.1144 15.7603 18.0254 15.8473C17.9363 15.9343 17.8863 16.0523 17.8863 16.1754V16.3609C17.8863 16.7301 17.7363 17.0841 17.4692 17.3451C17.2021 17.6061 16.8399 17.7527 16.4622 17.7527H16.2723C16.0103 17.7527 15.7976 17.9605 15.7976 18.2166Z" fill="white"/>
<g clip-path="url(#clip1_27_2408)">
<path d="M11.4304 13.8557C11.9556 13.8565 12.4674 13.6929 12.8906 13.3888H12.8902C12.9016 13.4037 12.9137 13.4178 12.9274 13.4315L14.3895 14.8604C14.4607 14.93 14.5573 14.9691 14.658 14.9692C14.7588 14.9692 14.8554 14.9301 14.9266 14.8605C14.9979 14.791 15.038 14.6966 15.038 14.5981C15.038 14.4997 14.998 14.4052 14.9268 14.3356L13.4648 12.9067C13.4512 12.8933 13.4366 12.8809 13.4211 12.8696C13.7321 12.4563 13.8996 11.9564 13.8988 11.4434C13.8986 10.8036 13.6385 10.1901 13.1756 9.73778C12.7127 9.28542 12.085 9.0312 11.4304 9.03101C10.7757 9.03101 10.1478 9.28516 9.68491 9.73757C9.22198 10.19 8.96191 10.8036 8.96191 11.4434C8.96191 12.0832 9.22198 12.6967 9.68491 13.1491C10.1478 13.6016 10.7757 13.8557 11.4304 13.8557ZM11.4304 10.6944C12.0623 10.0735 13.6425 11.1598 11.4304 12.5567C9.21825 11.1598 10.7984 10.0739 11.4304 10.6944Z" fill="white"/>
</g>
</g>
<path d="M0 0H24H0ZM24 17.7857C24 21.4466 21.0323 24.4143 17.3714 24.4143H6.62857C2.96771 24.4143 0 21.4466 0 17.7857V17.7857C0 20.989 2.78223 23.5857 6.21429 23.5857H17.7857C21.2178 23.5857 24 20.989 24 17.7857V17.7857ZM0 24V0V24ZM24 0V24V0Z" fill="#2D2F30" mask="url(#path-1-inside-1_27_2408)"/>
<defs>
<linearGradient id="paint0_linear_27_2408" x1="-0.705882" y1="5.4" x2="25.2076" y2="8.82691" gradientUnits="userSpaceOnUse">
<stop stop-color="#C7533A" stop-opacity="0.8"/>
<stop offset="1" stop-color="#6555CD" stop-opacity="0.24"/>
</linearGradient>
<clipPath id="clip0_27_2408">
<rect width="18.2286" height="17.8143" fill="white" transform="translate(2.88574 3.0929)"/>
</clipPath>
<clipPath id="clip1_27_2408">
<rect width="6.07619" height="5.9381" fill="white" transform="translate(8.96191 9.03101)"/>
</clipPath>
</defs>
</svg>
